<svg xmlns="http://www.w3.org/2000/svg" width="35" height="50" viewBox="0 0 35 50">
  <g id="placeholder-filled-point" transform="translate(-12.883)">
    <path id="Path_27" data-name="Path 27" d="M30.382,0c-9.649,0-17.5,8.258-17.5,18.408a18.748,18.748,0,0,0,1.53,7.514c4.375,10.071,12.764,20.7,15.231,23.722a.943.943,0,0,0,1.476,0c2.466-3.018,10.855-13.65,15.232-23.722a18.74,18.74,0,0,0,1.53-7.514C47.882,8.258,40.031,0,30.382,0Zm0,27.969a9.346,9.346,0,0,1-9.09-9.562,9.346,9.346,0,0,1,9.09-9.562,9.346,9.346,0,0,1,9.09,9.562A9.345,9.345,0,0,1,30.382,27.969Z" transform="translate(0)" fill="#6fc28a"/>
  </g>
</svg>
