<svg xmlns="http://www.w3.org/2000/svg" width="55" height="70" viewBox="0 0 55 70">
  <g id="icon-table" transform="translate(-326.972 -1958.5)">
    <rect id="Rectangle_10" data-name="Rectangle 10" width="55" height="70" rx="3" transform="translate(326.972 1958.5)" fill="#fff"/>
    <g id="Group_19" data-name="Group 19" transform="translate(334.715 1969.061)">
      <line id="Line_3" data-name="Line 3" x2="30" transform="translate(8 10)" fill="none" stroke="#6fc28a" stroke-width="2"/>
      <path id="Path_15" data-name="Path 15" d="M485,1612l2,3,3-9" transform="translate(-485 -1606)" fill="none" stroke="#6fc28a" stroke-width="2"/>
    </g>
    <g id="Group_20" data-name="Group 20" transform="translate(334.715 1981.514)">
      <line id="Line_3-2" data-name="Line 3" x2="30" transform="translate(8 10)" fill="none" stroke="#6fc28a" stroke-width="2"/>
      <path id="Path_15-2" data-name="Path 15" d="M485,1612l2,3,3-9" transform="translate(-485 -1606)" fill="none" stroke="#6fc28a" stroke-width="2"/>
    </g>
    <g id="Group_21" data-name="Group 21" transform="translate(334.715 1994.349)">
      <line id="Line_3-3" data-name="Line 3" x2="30" transform="translate(8 10)" fill="none" stroke="#6fc28a" stroke-width="2"/>
      <path id="Path_15-3" data-name="Path 15" d="M485,1612l2,3,3-9" transform="translate(-485 -1606)" fill="none" stroke="#6fc28a" stroke-width="2"/>
    </g>
    <g id="Group_22" data-name="Group 22" transform="translate(334.715 2007.183)">
      <line id="Line_3-4" data-name="Line 3" x2="30" transform="translate(8 10)" fill="none" stroke="#6fc28a" stroke-width="2"/>
      <path id="Path_15-4" data-name="Path 15" d="M485,1612l2,3,3-9" transform="translate(-485 -1606)" fill="none" stroke="#6fc28a" stroke-width="2"/>
    </g>
    <rect id="Rectangle_11" data-name="Rectangle 11" width="35" height="5" transform="translate(336.976 1959.752)" fill="#6fc28a"/>
  </g>
</svg>
