<svg xmlns="http://www.w3.org/2000/svg" width="30" height="50" viewBox="0 0 30 50">
  <g id="smartphone-call" transform="translate(-7.334)">
    <path id="Path_28" data-name="Path 28" d="M33.846,0H10.822A3.444,3.444,0,0,0,7.334,3.377V46.621A3.445,3.445,0,0,0,10.822,50H33.846a3.443,3.443,0,0,0,3.488-3.377V3.377A3.444,3.444,0,0,0,33.846,0ZM18.651,2.434h7.366a.409.409,0,1,1,0,.819H18.651a.409.409,0,1,1,0-.819Zm3.683,45.877a1.69,1.69,0,1,1,1.744-1.69A1.717,1.717,0,0,1,22.334,48.311ZM34.907,43.75H9.761V5.356H34.907Z" fill="#6fc28a"/>
  </g>
</svg>
