<svg xmlns="http://www.w3.org/2000/svg" width="70" height="60" viewBox="0 0 131.15 102.28">
  <g id="logo-zrub" transform="translate(-389 -39.72)">
    <path id="Path_3" data-name="Path 3" d="M1172.829,350.518h70V278.493l-35.606-27.975-34.394,27.975Z" transform="translate(-782.829 -209.518)" fill="none" stroke="#707070" stroke-width="2"/>
    <g id="Rectangle_8" data-name="Rectangle 8" transform="translate(425 81)" fill="none" stroke="#707070" stroke-width="2">
      <rect width="20" height="25" stroke="none"/>
      <rect x="1" y="1" width="18" height="23" fill="none"/>
    </g>
    <path id="Path_8" data-name="Path 8" d="M512.134,349V325.348H527.29v19.015" transform="translate(-110 -208)" fill="none" stroke="#707070" stroke-width="2"/>
    <path id="Path_9" data-name="Path 9" d="M544,290.248v20.21" transform="translate(-110 -208)" fill="none" stroke="#707070" stroke-width="2"/>
    <path id="Path_10" data-name="Path 10" d="M538.178,298.154h15.337" transform="translate(-110 -208.154)" fill="none" stroke="#707070" stroke-width="2"/>
    <path id="title" d="M3.77,17.027h7.6V19H.781V17.4L8.135,6.773H.83V4.781h10.3V6.344Zm14.941-3.506H15.957V19H13.486V4.781h5a5.82,5.82,0,0,1,3.8,1.1,3.9,3.9,0,0,1,1.338,3.193,4,4,0,0,1-.688,2.388,4.38,4.38,0,0,1-1.919,1.479l3.193,5.928V19H21.563Zm-2.754-1.982H18.5a2.824,2.824,0,0,0,1.953-.63,2.2,2.2,0,0,0,.7-1.724A2.338,2.338,0,0,0,20.5,7.418a2.759,2.759,0,0,0-1.938-.645H15.957Zm20.41-6.758v9.5a4.618,4.618,0,0,1-1.45,3.589A5.508,5.508,0,0,1,31.055,19.2a5.548,5.548,0,0,1-3.877-1.3,4.64,4.64,0,0,1-1.436-3.618V4.781H28.2v9.512a3.021,3.021,0,0,0,.723,2.178,2.819,2.819,0,0,0,2.129.752q2.852,0,2.852-3.008V4.781ZM39,19V4.781h4.873a5.949,5.949,0,0,1,3.672.967,3.405,3.405,0,0,1,1.26,2.881,3.07,3.07,0,0,1-.527,1.758A3.394,3.394,0,0,1,46.738,11.6a3.138,3.138,0,0,1,1.782,1.177,3.427,3.427,0,0,1,.63,2.075,3.785,3.785,0,0,1-1.284,3.076A5.584,5.584,0,0,1,44.189,19Zm2.471-6.416v4.443h2.744a2.656,2.656,0,0,0,1.816-.576,2.022,2.022,0,0,0,.654-1.6,2.029,2.029,0,0,0-2.266-2.266Zm0-1.816H43.9a2.8,2.8,0,0,0,1.8-.522,1.79,1.79,0,0,0,.649-1.479,1.815,1.815,0,0,0-.6-1.523,3.033,3.033,0,0,0-1.87-.469h-2.4ZM1.445,43V28.781h4.2a6.586,6.586,0,0,1,3.345.84A5.726,5.726,0,0,1,11.25,32a7.564,7.564,0,0,1,.8,3.535v.713a7.532,7.532,0,0,1-.806,3.555A5.658,5.658,0,0,1,8.95,42.17,6.892,6.892,0,0,1,5.537,43ZM3.916,30.773V41.027H5.527a3.71,3.71,0,0,0,2.983-1.216A5.3,5.3,0,0,0,9.57,36.32v-.791a5.434,5.434,0,0,0-1.006-3.535,3.566,3.566,0,0,0-2.92-1.221Zm21.943,5.488a8.724,8.724,0,0,1-.723,3.667,5.464,5.464,0,0,1-2.065,2.422,5.681,5.681,0,0,1-3.091.845,5.7,5.7,0,0,1-3.081-.845,5.548,5.548,0,0,1-2.09-2.407,8.451,8.451,0,0,1-.747-3.6v-.8a8.649,8.649,0,0,1,.737-3.672,5.542,5.542,0,0,1,2.08-2.437,5.663,5.663,0,0,1,3.081-.845,5.713,5.713,0,0,1,3.081.835,5.471,5.471,0,0,1,2.075,2.4,8.63,8.63,0,0,1,.742,3.647Zm-2.471-.742A6.216,6.216,0,0,0,22.5,31.9a2.923,2.923,0,0,0-2.534-1.26,2.914,2.914,0,0,0-2.5,1.255,6.1,6.1,0,0,0-.923,3.55v.82a6.168,6.168,0,0,0,.913,3.623,2.94,2.94,0,0,0,2.534,1.279,2.906,2.906,0,0,0,2.524-1.25,6.3,6.3,0,0,0,.884-3.652Zm8.135-6.738,4.1,10.9,4.092-10.9H42.91V43H40.449V38.313l.244-6.27L36.494,43H34.727L30.537,32.053l.244,6.26V43H28.32V28.781Z" transform="translate(471 76)" fill="#707070"/>
  </g>
</svg>
