<svg xmlns="http://www.w3.org/2000/svg" width="55" height="72.252" viewBox="0 0 55 72.252"><defs><style>.a{fill:#fff;}.b{fill:none;stroke:#6fc28a;stroke-width:2px;}.c{fill:#6fc28a;}</style></defs><g transform="translate(-326.972 -1958.5)"><rect class="a" width="55" height="72.252" rx="3" transform="translate(326.972 1958.5)"/><g transform="translate(334.715 1969.061)"><line class="b" x2="30" transform="translate(8 10)"/><path class="b" d="M485,1612l2,3,3-9" transform="translate(-485 -1606)"/></g><g transform="translate(334.715 1982.377)"><line class="b" x2="30" transform="translate(8 10)"/><path class="b" d="M485,1612l2,3,3-9" transform="translate(-485 -1606)"/></g><g transform="translate(334.715 1995.694)"><line class="b" x2="30" transform="translate(8 10)"/><path class="b" d="M485,1612l2,3,3-9" transform="translate(-485 -1606)"/></g><g transform="translate(334.715 2009.01)"><line class="b" x2="30" transform="translate(8 10)"/><path class="b" d="M485,1612l2,3,3-9" transform="translate(-485 -1606)"/></g><rect class="c" width="35" height="5" transform="translate(336.976 1959.752)"/></g></svg>